<svg id="Capa_1" data-name="Capa 1" xmlns="http://www.w3.org/2000/svg" viewBox="0 0 290.63 342.15"><defs><style>.cls-1{fill:#e6e6e6;}.cls-2,.cls-4{fill:#333;}.cls-3,.cls-4{font-size:22.11px;font-family:MathcadUniMathPrime-Italic, Mathcad UniMath Prime;font-style:italic;}.cls-3{fill:#0071bc;}.cls-5,.cls-6{fill:none;stroke-miterlimit:10;}.cls-5{stroke:#333;}.cls-6{stroke:gray;stroke-dasharray:12;}</style></defs><rect class="cls-1" x="36.3" y="43.68" width="206.81" height="298.48"/><circle class="cls-2" cx="137.44" cy="296.32" r="9.47"/><text class="cls-3" transform="translate(126 278.62) scale(1.06 1)">As</text><text class="cls-4" transform="translate(0 198.62) scale(1.06 1)">h</text><text class="cls-4" transform="translate(134 18.62) scale(1.06 1)">b</text><text class="cls-4" transform="translate(277 175.62) scale(1.06 1)">d</text><line class="cls-2" x1="22.29" y1="43.68" x2="22.29" y2="342.15"/><line class="cls-5" x1="22.29" y1="50.86" x2="22.29" y2="334.98"/><polygon class="cls-2" points="17.3 52.31 22.29 43.68 27.27 52.31 17.3 52.31"/><polygon class="cls-2" points="17.3 333.52 22.29 342.15 27.27 333.52 17.3 333.52"/><line class="cls-2" x1="266.22" y1="43.68" x2="266.22" y2="296.32"/><line class="cls-5" x1="266.22" y1="50.86" x2="266.22" y2="289.15"/><polygon class="cls-2" points="261.24 52.31 266.22 43.68 271.21 52.31 261.24 52.31"/><polygon class="cls-2" points="261.24 287.69 266.22 296.32 271.21 287.69 261.24 287.69"/><line class="cls-2" x1="242.74" y1="26.82" x2="36.11" y2="26.82"/><line class="cls-5" x1="235.56" y1="26.82" x2="43.29" y2="26.82"/><polygon class="cls-2" points="234.1 21.84 242.74 26.82 234.1 31.81 234.1 21.84"/><polygon class="cls-2" points="44.75 21.84 36.12 26.82 44.75 31.81 44.75 21.84"/><line class="cls-6" x1="265.46" y1="296.51" x2="36.11" y2="296.51"/></svg>